<?xml version="1.0" encoding="UTF-8" standalone="no"?>
<!DOCTYPE svg PUBLIC "-//W3C//DTD SVG 1.1//EN" "http://www.w3.org/Graphics/SVG/1.1/DTD/svg11.dtd">
<svg width="100%" height="100%" viewBox="0 0 562 77" version="1.1" xmlns="http://www.w3.org/2000/svg" xmlns:xlink="http://www.w3.org/1999/xlink" xml:space="preserve" xmlns:serif="http://www.serif.com/" style="fill-rule:evenodd;clip-rule:evenodd;stroke-linejoin:round;stroke-miterlimit:2;">
    <g transform="matrix(1,0,0,1,-4601.23,-3969.12)">
        <g id="Стор-1_86х54мм" transform="matrix(4.42234e-18,0.0722222,-0.827165,5.06492e-17,5162.99,3969.12)">
            <rect x="0" y="0" width="1062.99" height="679.134" style="fill:none;"/>
            <clipPath id="_clip1">
                <rect x="0" y="0" width="1062.99" height="679.134"/>
            </clipPath>
            <g clip-path="url(#_clip1)">
                <g transform="matrix(1.04014e-15,-1.48316,3.89595,2.08292e-17,-625.297,781.012)">
                    <g transform="matrix(0.769216,0,0,1,68.69,-0.716138)">
                        <g transform="matrix(1.94427,0,0,6.48089,-308.39,-1418.24)">
                            <path d="M409.084,245.708C408.156,249.379 407.489,253.05 407.089,256.715C406.765,260.348 406.727,264.114 406.969,268.026C408.137,263.993 409.732,259.764 411.745,255.324C413.803,251.05 415.111,248.312 415.676,247.099L427.591,245.645C426.95,252.384 426.683,258.836 426.81,265.003C426.969,271.253 427.21,276.861 427.534,281.821L417.372,283.873C416.966,277.306 416.565,270.91 416.159,264.698C414.831,267.163 413.396,269.964 411.866,273.107C410.493,276.296 409.63,279.198 409.268,281.821C408.379,281.898 406.181,282.285 402.675,282.971C400.535,283.454 398.782,283.873 397.41,284.241C396.845,277.909 396.521,271.736 396.445,265.727C396.4,259.719 396.121,253.635 395.593,247.461L409.084,245.708Z" style="fill:white;"/>
                        </g>
                        <g transform="matrix(1.94427,0,0,6.48089,-308.39,-1414.79)">
                            <path d="M392.321,254.411C387.904,254.656 384.425,255.13 382.443,255.275C382.299,259.809 382.545,268.727 384.075,282.922L371.252,285.278L371.195,256.126C367.882,256.395 365.453,256.635 362.293,256.931L362.293,246.894L391.676,244.076C391.965,247.454 392.179,251.084 392.321,254.411" style="fill:white;"/>
                        </g>
                        <g transform="matrix(1.94427,0,0,-6.48089,-308.39,2015.89)">
                            <path d="M315.965,260.168L312.999,274.077L310.579,260.104L315.965,260.168ZM295.946,248.246C300.099,260.263 303.243,272.222 305.377,284.118L321.109,286.176C323.002,275.41 326.33,263.026 331.087,249.034L319.172,246.557L317.476,253.149L309.677,252.425L308.343,245.769L295.946,248.246Z" style="fill:white;"/>
                        </g>
                        <g transform="matrix(1.94427,0,0,6.48089,-308.39,-1430.44)">
                            <path d="M277.283,276.611C280.407,276.161 282.785,275.292 284.415,273.992C285.923,272.787 286.356,271.467 285.722,270.05C285.388,269.139 284.445,268.502 282.893,268.138C281.301,267.859 279.307,267.9 276.903,268.274L277.283,276.611ZM287.943,260.483C292.63,261.331 295.444,263.34 296.374,266.522C297.442,269.9 297.099,272.946 295.34,275.665C293.811,278.047 291.354,280.071 287.969,281.743C284.903,283.316 281.426,284.426 277.542,285.075C273.945,285.747 270.622,285.921 267.578,285.597L266.555,267.296C266.095,260.82 265.593,254.652 265.038,248.785L289.086,245.847L291.991,255.024C288.016,255.398 280.994,256.166 276.057,256.743L276.244,260.307C280.699,259.756 284.6,259.812 287.943,260.483" style="fill:white;"/>
                        </g>
                        <g transform="matrix(1.94427,0,0,6.48089,-308.39,-1404.9)">
                            <path d="M432.184,246.07L444.163,244.374C443.756,247.442 443.534,249.9 443.496,251.755C447.205,249.176 450.489,246.616 453.353,244.076L463.699,248.306L451.422,257.445L464.785,278.734L452.813,283.752L442.772,264.095C442.689,269.741 442.827,274.479 443.189,279.884L432.303,282.183L432.184,246.07Z" style="fill:white;"/>
                        </g>
                        <g transform="matrix(1.94427,0,0,6.48089,-308.39,-1419.44)">
                            <path d="M333.643,275.574C331.827,272.183 330.937,268.576 330.976,264.746C331.059,261.157 331.885,257.829 333.459,254.768C334.99,251.542 337.01,249.077 339.506,247.388C342.332,245.572 345.413,244.866 348.76,245.266C352.392,245.673 356.082,247.483 359.83,250.709L353.841,257.848C349.972,255.593 346.93,255.448 344.707,257.429C342.694,259.08 341.747,261.659 341.868,265.171C341.945,268.677 343.037,271.255 345.133,272.914C346.257,273.839 347.536,274.254 348.968,274.159C351.498,273.99 354.583,272.296 356.14,269.94L363.596,275.736C362.041,278.602 359.938,281.027 357.279,282.626C354.627,284.22 351.419,284.998 348.179,285.113C345.607,285.205 343.014,284.489 340.414,282.955C337.632,281.297 335.377,278.84 333.643,275.574" style="fill:white;"/>
                        </g>
                    </g>
                    <g transform="matrix(0.769216,0,0,1.03636,68.69,-15.0137)">
                        <g transform="matrix(1.94427,0,0,6.48089,-308.39,-1413.91)">
                            <path d="M215.612,281.469C220,271.053 225.23,258.769 227.791,245.716L238.944,244.297L241.273,263.442L245.068,245.407L255.619,245.171C256.605,257.179 259.064,269.964 262.995,283.539L251.233,284.92L247.955,265.426L244.459,283.598L234.701,283.754L233.221,263.446L227.044,284.478L215.612,281.469Z" style="fill:white;"/>
                        </g>
                        <g transform="matrix(1.94427,0,0,6.48089,-308.39,-1422.08)">
                            <path d="M221.872,248.175C218.201,255.155 215.001,261.759 212.313,268.016C209.596,274.34 207.863,278.773 206.053,284.419L194.678,283.752L199.249,273.218L193.622,262.148L187.88,250.963L200.881,246.06C201.205,247.794 201.631,249.89 202.151,252.354C202.679,254.932 203.441,257.473 204.45,259.975L209.595,246.727L221.872,248.175Z" style="fill:white;"/>
                        </g>
                        <g transform="matrix(1.94427,0,0,6.48089,-308.39,-1422.67)">
                            <path d="M169.387,275.933C172.531,275.647 174.95,274.904 176.646,273.691C178.215,272.567 178.717,271.271 178.158,269.823C177.872,268.896 176.964,268.21 175.433,267.765C173.858,267.403 171.864,267.34 169.444,267.587L169.387,275.933ZM180.876,260.385C185.512,261.477 188.218,263.631 188.98,266.857C189.869,270.287 189.368,273.31 187.469,275.933C185.817,278.232 183.258,280.125 179.79,281.617C176.646,283.027 173.115,283.954 169.203,284.399C165.576,284.882 162.248,284.882 159.225,284.399L159.161,266.07C159.041,259.578 158.863,253.392 158.615,247.505L184.811,245.688L182.629,255.304C178.64,255.469 174.163,255.711 169.203,256.028L169.203,259.597C173.68,259.28 177.573,259.54 180.876,260.385" style="fill:white;"/>
                        </g>
                    </g>
                </g>
            </g>
        </g>
    </g>
</svg>
