<?xml version="1.0" encoding="UTF-8" standalone="no"?>
<!DOCTYPE svg PUBLIC "-//W3C//DTD SVG 1.1//EN" "http://www.w3.org/Graphics/SVG/1.1/DTD/svg11.dtd">
<svg width="100%" height="100%" viewBox="0 0 241 153" version="1.1" xmlns="http://www.w3.org/2000/svg" xmlns:xlink="http://www.w3.org/1999/xlink" xml:space="preserve" xmlns:serif="http://www.serif.com/" style="fill-rule:evenodd;clip-rule:evenodd;stroke-linejoin:round;stroke-miterlimit:2;">
    <g transform="matrix(1,0,0,1,-4601.23,-4106.91)">
        <g id="Стор-1_86х54мм" transform="matrix(8.77664e-18,0.143333,-0.353616,2.16527e-17,4841.38,4106.91)">
            <rect x="0" y="0" width="1062.99" height="679.134" style="fill:none;"/>
            <clipPath id="_clip1">
                <rect x="0" y="0" width="1062.99" height="679.134"/>
            </clipPath>
            <g clip-path="url(#_clip1)">
                <g transform="matrix(2.6863e-16,-1.77824,4.39328,1.0904e-16,-45825.6,8012.07)">
                    <path d="M4368.24,10448.4L4505.63,10440.8C4505.63,10440.8 4501.3,10486.6 4491.87,10531.6C4475.88,10607.8 4458.86,10662.7 4458.86,10662.7L4260.49,10672.8L4350.14,10534.7L4325.11,10534.8L4365.12,10454.6L4365.14,10454.6L4365.8,10453.3L4368.24,10448.4ZM4272.15,10569.3L4296.18,10569.2L4253.91,10655.4L4123.72,10661.7C4123.72,10661.7 4131.45,10597.1 4145.77,10533.5C4160.78,10466.8 4170.9,10440.7 4170.9,10440.7L4363.5,10430.8L4272.15,10569.3ZM4447.79,10507.4C4446.91,10512.2 4445.97,10516.9 4444.97,10521.7C4436.79,10560.7 4428.35,10593.9 4422.2,10616.6C4422.2,10616.6 4337.79,10620.9 4337.79,10620.9L4381.48,10530.8C4405.55,10526.2 4427.95,10518.2 4447.79,10507.4ZM4204.13,10496.3C4221.83,10508.5 4242.25,10518.2 4264.55,10524.9L4223.35,10608.9C4223.35,10608.9 4179.57,10611 4179.57,10611C4182.92,10590.9 4187.26,10567.4 4192.52,10544C4196.91,10524.5 4200.83,10508.8 4204.13,10496.3Z" style="fill:rgb(223,255,0);"/>
                </g>
            </g>
        </g>
    </g>
</svg>
